{"glyphs":{"0":{"ha":741,"x_min":20,"x_max":720,"o":"m 720 357 l 720 357 l 720 357 q 720 357 720 357 q 720 356 720 357 l 720 332 l 720 332 q 664 167 712 240 q 539 51 616 94 q 370 7 463 7 q 204 49 280 7 q 81 161 129 91 q 22 321 33 232 l 20 321 l 20 632 l 20 632 q 69 807 22 728 q 195 932 116 885 q 370 979 275 979 q 546 932 467 979 q 671 807 625 885 q 720 631 718 728 l 720 631 l 720 630 q 720 629 720 630 q 720 629 720 629 l 720 629 l 720 357 m 370 143 l 370 143 q 520 205 459 143 q 585 357 582 267 l 585 629 q 520 782 582 720 q 370 843 459 843 q 219 780 282 843 q 156 629 156 718 l 156 629 l 156 357 l 156 357 q 219 206 156 269 q 370 143 282 143 z "},"1":{"ha":256,"x_min":20,"x_max":236,"o":"m 156 979 l 156 979 l 236 979 l 236 4 l 100 4 l 100 844 l 20 844 l 20 979 l 156 979 l 156 979 z "},"2":{"ha":741,"x_min":20,"x_max":720,"o":"m 372 283 l 372 283 q 248 243 302 283 q 170 141 193 204 l 720 141 l 720 5 l 22 5 l 22 68 l 22 68 q 23 89 22 79 l 29 141 l 29 141 q 150 339 57 262 q 370 418 242 416 l 370 419 q 522 482 459 419 q 585 633 585 545 q 522 785 585 722 q 370 848 459 848 q 261 815 309 848 q 185 733 213 782 q 156 631 157 684 l 20 635 q 117 869 26 766 q 370 983 225 983 q 546 936 467 983 q 673 809 625 888 q 720 633 720 730 q 673 458 720 537 q 548 332 626 378 q 372 283 469 285 l 372 283 z "},"3":{"ha":566,"x_min":20,"x_max":546,"o":"m 546 688 l 546 688 q 506 542 546 608 q 400 437 467 476 q 452 357 433 402 q 471 260 471 311 q 436 131 471 189 q 342 37 401 72 q 210 1 283 3 l 210 1 l 209 1 q 209 1 209 1 q 208 1 209 1 l 208 1 l 125 1 l 125 135 l 209 135 q 299 173 262 136 q 335 260 335 209 q 298 349 335 312 q 208 386 261 386 l 208 519 q 208 519 208 519 q 208 519 208 519 l 208 536 l 290 536 q 376 591 342 549 q 410 688 410 633 q 363 798 410 752 q 252 844 317 844 l 252 844 l 20 844 l 20 978 l 254 978 l 254 978 q 401 938 335 977 q 506 833 467 899 q 546 688 546 767 z "},"4":{"ha":741,"x_min":20,"x_max":720,"o":"m 585 718 l 585 718 l 585 980 l 720 980 l 720 644 l 719 644 l 718 4 l 582 4 l 583 439 q 370 368 490 368 q 195 414 274 368 q 69 539 116 461 q 20 714 22 617 l 20 714 l 20 716 q 20 717 20 716 q 20 718 20 717 l 20 718 l 20 979 l 156 979 l 156 717 q 220 565 158 626 q 370 503 281 503 q 514 559 454 503 q 583 699 574 615 l 583 718 l 585 718 z "},"5":{"ha":678,"x_min":20,"x_max":658,"o":"m 156 980 l 568 980 l 568 840 l 156 840 l 156 666 q 296 700 222 696 q 555 602 449 705 q 658 354 658 494 q 555 106 658 214 q 439 30 504 55 q 308 4 375 4 q 177 30 241 4 q 60 106 113 55 l 157 202 q 254 147 199 161 q 362 147 308 133 q 460 202 417 161 q 522 354 522 268 q 460 505 522 439 q 358 559 415 549 q 248 555 302 570 q 155 504 193 540 l 155 505 l 20 505 l 20 980 l 156 980 z "},"6":{"ha":740,"x_min":20,"x_max":720,"o":"m 370 703 l 370 703 q 545 655 466 703 q 672 529 625 608 q 720 353 720 450 q 672 178 720 257 q 545 51 625 98 q 370 4 466 4 q 194 51 273 4 q 67 178 115 98 q 20 353 20 257 q 44 480 20 420 l 44 480 l 248 977 l 374 925 l 277 690 q 370 703 321 703 m 370 140 l 370 140 q 521 202 458 140 q 584 353 584 265 q 521 504 584 441 q 370 567 458 567 q 251 531 304 567 q 173 437 198 495 l 173 437 q 156 353 156 397 q 219 202 156 265 q 370 140 281 140 z "},"7":{"ha":644,"x_min":20,"x_max":624,"o":"m 624 493 l 624 493 q 624 492 624 492 q 624 491 624 492 l 624 491 l 624 4 l 488 4 l 488 493 q 439 669 486 591 q 313 795 392 748 q 137 842 233 842 l 137 842 l 20 842 l 20 978 l 138 978 l 138 977 q 382 911 273 976 q 556 738 491 846 q 624 494 621 629 l 624 494 l 624 493 z "},"8":{"ha":740,"x_min":20,"x_max":720,"o":"m 543 657 l 543 657 q 671 531 623 610 q 720 353 720 451 q 672 178 720 257 q 546 51 625 98 q 370 4 467 4 q 195 51 274 4 q 68 178 115 98 q 20 353 20 257 q 70 533 20 452 q 201 660 119 614 q 167 774 167 711 q 228 921 167 860 q 374 981 288 981 q 520 921 459 981 q 581 774 581 860 q 543 657 581 709 m 374 846 l 374 846 q 323 825 344 846 q 302 774 302 804 q 323 724 302 745 q 374 703 344 703 q 424 724 403 703 q 445 774 445 745 q 424 825 445 804 q 374 846 403 846 m 370 140 l 370 140 q 521 202 458 140 q 584 353 584 265 q 521 504 584 441 q 370 567 458 567 q 219 504 281 567 q 156 353 156 441 q 219 202 156 265 q 370 140 281 140 z "},"9":{"ha":740,"x_min":20,"x_max":720,"o":"m 370 982 l 370 982 q 546 935 467 982 q 672 808 625 887 q 720 632 720 729 q 696 505 720 565 l 696 505 l 489 3 l 363 54 l 463 296 q 370 283 418 283 q 195 330 274 283 q 68 456 115 377 q 20 632 20 536 q 68 808 20 729 q 195 935 115 887 q 370 982 274 982 m 370 418 l 370 418 q 489 455 437 418 q 567 549 542 491 l 567 549 q 584 632 584 588 q 521 784 584 721 q 370 846 458 846 q 219 784 281 846 q 156 632 156 721 q 219 481 156 544 q 370 418 281 418 z "},"\u0000":{"ha":0,"x_min":0,"x_max":0,"o":""},"\u001d":{"ha":0,"x_min":0,"x_max":0,"o":""}," ":{"ha":345,"x_min":0,"x_max":0,"o":""}," ":{"ha":345,"x_min":0,"x_max":0,"o":""},"!":{"ha":176,"x_min":20,"x_max":156,"o":"m 156 975 l 156 975 l 156 184 l 20 184 l 20 975 l 156 975 m 20 -1 l 20 -1 l 20 130 l 156 130 l 156 -1 l 20 -1 z "},"\"":{"ha":366,"x_min":20,"x_max":346,"o":"m 156 1192 l 156 1192 l 156 914 l 20 914 l 20 1192 l 156 1192 m 210 914 l 210 914 l 210 1192 l 346 1192 l 346 914 l 210 914 z "},"#":{"ha":900,"x_min":20,"x_max":880,"o":"m 850 975 l 850 975 l 774 761 l 880 761 l 880 625 l 726 625 l 648 408 l 812 408 l 812 273 l 600 273 l 503 -1 l 359 -1 l 456 273 l 280 273 l 183 -1 l 39 -1 l 136 273 l 20 273 l 20 408 l 184 408 l 262 625 l 88 625 l 88 761 l 310 761 l 385 975 l 530 975 l 454 761 l 630 761 l 705 975 l 850 975 m 505 408 l 505 408 l 582 625 l 406 625 l 328 408 l 505 408 z "},"$":{"ha":850,"x_min":52,"x_max":774,"o":"m 733 387 l 733 387 q 756 338 758 368 q 669 146 748 226 q 467 47 589 67 l 465 -7 l 344 -5 l 345 47 q 130 164 214 71 q 52 359 54 250 l 52 373 l 166 368 l 167 356 q 216 241 170 293 q 347 165 267 184 l 352 463 l 111 593 q 81 641 83 609 q 80 652 80 646 q 196 871 90 783 q 360 945 267 928 l 361 1010 l 483 1008 l 481 948 q 692 838 607 932 q 774 633 768 749 l 774 620 l 660 625 l 659 636 q 606 760 652 707 q 480 831 555 817 l 475 528 l 724 394 q 733 387 729 391 m 635 310 l 635 310 l 473 398 l 469 165 q 635 310 600 199 m 200 677 l 200 677 l 354 593 l 358 825 q 200 677 232 788 z "},"%":{"ha":910,"x_min":111,"x_max":872,"o":"m 460 781 l 460 781 q 409 663 460 711 q 285 614 357 614 q 162 663 213 614 q 111 781 111 711 q 162 899 111 850 q 285 947 213 947 q 409 899 357 947 q 460 781 460 850 m 225 781 l 225 781 q 243 740 225 757 q 285 723 260 723 q 328 740 310 723 q 345 781 345 757 q 328 821 345 804 q 285 838 310 838 q 243 821 260 838 q 225 781 225 804 m 697 377 l 697 377 q 821 328 770 377 q 872 210 872 279 q 821 92 872 140 q 697 43 770 43 q 574 92 625 43 q 523 210 523 140 q 574 328 523 279 q 697 377 625 377 m 697 153 l 697 153 q 740 169 722 153 q 758 210 758 186 q 740 250 758 233 q 697 267 722 267 q 655 250 673 267 q 637 210 637 233 q 655 169 637 186 q 697 153 673 153 m 597 966 l 597 966 l 705 930 l 357 -7 l 249 30 l 597 966 z "},"&":{"ha":791,"x_min":20,"x_max":771,"o":"m 754 468 l 754 468 q 767 408 763 438 q 770 407 768 408 q 771 407 770 407 l 771 275 q 762 277 766 275 q 760 277 761 277 q 732 199 751 237 q 522 16 664 66 q 406 -3 465 -3 q 244 35 321 -3 q 61 245 111 103 q 67 493 20 374 q 229 678 114 612 q 215 774 215 726 q 214 783 214 779 q 272 922 214 864 q 410 979 330 979 q 547 925 490 979 q 607 789 603 870 l 477 789 q 456 832 475 815 q 410 850 437 850 q 369 835 387 850 q 345 797 351 821 q 345 789 345 793 q 456 564 337 676 q 625 455 528 499 q 626 468 625 461 l 754 468 m 616 257 l 616 257 q 635 311 629 283 q 369 469 479 368 q 287 562 321 513 q 186 444 215 519 q 184 286 158 368 q 302 151 216 195 q 481 139 389 109 q 616 257 572 171 z "},"'":{"ha":176,"x_min":20,"x_max":156,"o":"m 20 914 l 20 914 l 20 1192 l 156 1192 l 156 914 l 20 914 z "},"(":{"ha":392,"x_min":20,"x_max":372,"o":"m 157 254 l 157 254 q 220 102 157 165 q 372 39 283 39 l 372 -96 q 195 -49 275 -96 q 69 77 116 -2 q 22 254 22 157 l 157 254 m 157 254 l 157 254 l 22 254 l 20 769 q 21 784 20 777 q 22 800 21 791 q 24 821 24 810 q 27 844 25 833 q 33 861 29 852 q 37 878 35 869 q 164 1052 74 984 q 370 1119 254 1119 l 370 983 q 228 929 288 983 q 157 793 168 875 l 157 254 z "},")":{"ha":392,"x_min":20,"x_max":372,"o":"m 20 39 l 20 39 q 172 102 109 39 q 235 254 235 165 l 370 254 q 323 77 370 157 q 196 -49 275 -2 q 20 -96 117 -96 l 20 39 m 364 844 l 364 844 q 368 821 366 833 q 370 800 368 810 q 371 784 370 791 q 372 769 371 777 l 370 254 l 235 254 l 235 793 q 164 929 224 875 q 22 983 104 983 l 22 1119 q 228 1052 138 1119 q 354 878 318 984 q 359 861 356 869 q 364 844 362 852 z "},"*":{"ha":439,"x_min":20,"x_max":418,"o":"m 210 878 q 185 966 208 926 q 160 1023 160 1010 q 176 1058 160 1044 q 218 1071 192 1071 q 260 1059 243 1071 q 277 1027 277 1046 q 252 966 277 1013 q 227 878 230 925 q 304 929 272 895 q 351 970 338 966 q 365 972 358 972 q 389 966 377 972 q 414 930 406 954 q 418 905 418 917 q 416 886 418 895 q 390 861 409 866 q 377 859 386 859 q 326 865 360 859 q 288 869 307 869 q 233 861 260 869 q 304 805 263 824 q 358 773 351 783 q 367 747 367 761 q 366 736 367 741 q 339 700 360 715 q 299 685 319 685 q 298 686 298 685 q 266 701 277 686 q 251 765 258 713 q 219 850 244 810 q 188 766 193 810 q 174 705 182 715 q 141 686 161 688 l 138 686 q 99 701 119 686 q 73 735 79 715 q 70 749 70 742 q 77 770 70 760 q 134 805 86 782 q 205 861 175 825 q 151 868 177 868 q 115 865 132 868 q 62 857 78 857 q 52 859 56 857 q 24 884 32 865 q 20 904 20 893 q 24 928 20 916 q 49 964 32 952 q 72 972 60 972 q 84 970 78 972 q 134 928 98 966 q 210 878 166 895 z "},"+":{"ha":572,"x_min":20,"x_max":551,"o":"m 352 568 l 352 568 l 551 568 l 551 432 l 352 432 l 352 235 l 216 235 l 216 432 l 20 432 l 20 568 l 216 568 l 216 765 l 352 765 l 352 568 z "},",":{"ha":176,"x_min":20,"x_max":156,"o":"m 20 -146 l 20 -146 l 20 131 l 156 131 l 156 -146 l 20 -146 z "},"-":{"ha":572,"x_min":20,"x_max":551,"o":"m 20 568 l 20 568 l 551 568 l 551 432 l 20 432 l 20 568 z "},"­":{"ha":572,"x_min":20,"x_max":551,"o":"m 20 568 l 20 568 l 551 568 l 551 432 l 20 432 l 20 568 z "},".":{"ha":176,"x_min":20,"x_max":156,"o":"m 20 -19 l 20 -19 l 20 127 l 156 127 l 156 -19 l 20 -19 z "},"/":{"ha":531,"x_min":20,"x_max":511,"o":"m 20 -1 l 20 -1 l 366 975 l 511 975 l 164 -1 l 20 -1 z "},":":{"ha":176,"x_min":20,"x_max":156,"o":"m 20 217 l 20 217 l 20 363 l 156 363 l 156 217 l 20 217 m 20 587 l 20 587 l 20 733 l 156 733 l 156 587 l 20 587 z "},";":{"ha":178,"x_min":20,"x_max":157,"o":"m 22 52 l 22 52 l 22 329 l 157 329 l 157 52 l 22 52 m 156 733 l 156 733 l 156 587 l 20 587 l 20 733 l 156 733 z "},";":{"ha":178,"x_min":20,"x_max":157,"o":"m 22 52 l 22 52 l 22 329 l 157 329 l 157 52 l 22 52 m 156 733 l 156 733 l 156 587 l 20 587 l 20 733 l 156 733 z "},"<":{"ha":543,"x_min":20,"x_max":522,"o":"m 427 867 l 427 867 l 522 771 l 212 461 l 505 169 l 408 73 l 20 461 l 427 867 z "},"=":{"ha":572,"x_min":20,"x_max":551,"o":"m 20 505 l 20 505 l 20 641 l 551 641 l 551 505 l 20 505 m 20 294 l 20 294 l 20 429 l 551 429 l 551 294 l 20 294 z "},">":{"ha":543,"x_min":20,"x_max":523,"o":"m 20 771 l 20 771 l 117 867 l 523 461 l 134 73 l 39 169 l 331 461 l 20 771 z "},"?":{"ha":726,"x_min":20,"x_max":706,"o":"m 284 -1 l 284 -1 l 284 130 l 420 130 l 420 -1 l 284 -1 m 363 1038 l 363 1038 q 536 991 458 1038 q 660 865 614 944 q 706 688 706 785 q 669 530 706 603 q 569 408 632 457 q 424 345 505 359 l 424 184 l 288 184 l 288 483 l 421 483 q 529 560 487 504 q 570 688 570 616 q 510 840 570 777 q 363 903 449 903 q 257 870 304 903 q 184 788 211 838 q 156 687 157 739 l 20 690 q 115 924 26 821 q 363 1038 221 1038 z "},"@":{"ha":1051,"x_min":20,"x_max":888,"o":"m 675 134 l 675 134 q 758 244 741 184 l 878 244 q 803 90 863 157 q 652 -15 744 23 q 450 -53 559 -53 q 235 -5 332 -53 q 80 123 138 43 q 20 303 22 203 q 20 310 20 307 l 22 616 q 22 616 22 616 q 21 626 21 621 q 79 807 21 725 q 235 938 137 889 q 451 987 332 987 q 453 987 452 987 q 462 987 457 987 q 694 920 587 987 q 842 746 796 854 q 864 526 888 640 q 689 288 828 374 q 677 282 684 284 q 577 184 637 219 q 450 149 518 149 q 309 192 372 149 q 208 307 245 235 q 170 465 170 378 q 208 624 170 553 q 309 739 245 696 q 450 781 372 781 q 647 689 562 781 q 680 699 661 699 q 721 683 703 699 q 738 642 738 666 l 738 511 q 750 550 745 530 q 755 593 755 572 q 752 612 752 602 q 734 701 752 658 q 709 748 724 726 q 703 758 705 753 q 598 843 661 812 q 462 873 534 873 q 460 873 461 873 q 451 873 456 873 q 227 798 323 873 q 137 626 137 722 q 137 625 137 625 q 138 615 138 621 l 136 312 q 137 305 137 309 q 226 135 137 210 q 450 61 323 61 q 675 134 578 61 m 450 263 l 450 263 q 565 322 517 263 q 612 465 612 382 q 565 608 612 549 q 450 667 517 667 q 334 608 382 667 q 287 465 287 549 q 334 322 287 382 q 450 263 382 263 z "},"A":{"ha":741,"x_min":20,"x_max":720,"o":"m 720 625 l 720 625 q 720 625 720 625 q 720 624 720 625 l 720 624 l 720 1 l 585 1 l 585 277 l 156 274 l 156 1 l 20 1 l 20 627 l 20 627 q 69 802 22 724 q 195 927 116 880 q 370 974 274 974 q 545 927 466 974 q 671 802 625 880 q 720 627 718 724 l 720 627 l 720 625 m 156 410 l 156 410 l 585 413 l 585 625 q 520 777 582 715 q 370 838 458 838 q 219 775 281 838 q 156 624 156 713 l 156 624 l 156 410 z "},"B":{"ha":741,"x_min":20,"x_max":720,"o":"m 607 604 l 607 604 q 720 351 720 496 q 673 176 720 255 q 547 49 626 96 q 370 1 467 1 q 195 48 275 1 q 69 174 116 96 q 20 349 22 252 l 20 349 l 20 975 l 156 975 l 156 975 q 292 936 231 972 q 389 839 353 900 q 425 706 425 779 q 425 696 425 701 q 607 604 526 676 m 290 706 l 290 706 q 251 798 290 760 q 156 840 213 836 l 156 572 q 251 614 213 576 q 290 706 290 652 m 370 137 l 370 137 q 522 200 459 137 q 585 351 585 263 q 555 456 585 410 q 480 531 526 503 q 385 565 435 559 q 289 473 348 507 q 156 436 229 439 l 156 351 l 156 351 q 219 200 156 263 q 370 137 282 137 z "},"C":{"ha":526,"x_min":20,"x_max":505,"o":"m 20 488 l 20 488 q 86 732 20 622 q 261 908 151 842 q 505 973 371 973 l 505 838 q 330 790 409 838 q 203 664 250 743 q 156 488 156 585 q 203 313 156 392 q 330 186 250 233 q 505 139 409 139 l 505 3 q 261 69 371 3 q 86 244 151 134 q 20 488 20 355 z "},"D":{"ha":659,"x_min":20,"x_max":639,"o":"m 156 970 l 156 970 q 399 903 290 968 q 573 728 508 838 q 639 485 639 618 q 573 241 639 351 q 399 66 508 132 q 156 -1 290 1 l 156 -1 l 20 -1 l 20 975 l 156 975 l 156 970 m 156 135 l 156 135 q 331 184 253 137 q 456 310 409 231 q 503 485 503 389 q 456 660 503 581 q 331 786 409 739 q 156 835 253 833 l 156 135 z "},"E":{"ha":526,"x_min":20,"x_max":505,"o":"m 20 488 l 20 488 q 86 732 20 622 q 261 908 151 842 q 505 973 371 973 l 505 838 q 348 800 420 838 q 227 700 276 763 q 162 555 178 636 l 505 555 l 505 419 l 163 419 q 228 275 179 338 q 349 176 277 212 q 505 139 420 139 l 505 3 q 261 69 371 3 q 86 244 151 134 q 20 488 20 355 z "},"F":{"ha":713,"x_min":20,"x_max":692,"o":"m 370 975 l 370 975 q 565 916 479 975 q 692 762 651 857 l 568 707 q 490 803 543 766 q 370 840 437 840 q 219 777 281 840 q 156 625 156 714 l 156 625 l 156 413 l 375 414 l 375 278 l 156 277 l 156 2 l 20 2 l 20 629 l 20 629 q 69 803 22 725 q 195 928 116 882 q 370 975 274 975 z "},"G":{"ha":727,"x_min":20,"x_max":707,"o":"m 707 388 l 707 388 l 707 39 l 707 39 q 522 2 614 2 q 255 82 378 2 q 71 303 132 161 q 39 555 20 429 q 134 784 57 682 q 335 939 210 886 q 500 974 423 973 q 630 962 577 975 q 700 941 684 949 l 650 815 q 604 829 642 819 q 509 839 566 839 q 387 814 452 839 q 197 623 251 753 q 197 355 143 494 q 349 183 246 240 q 571 141 452 125 l 571 388 l 707 388 z "},"H":{"ha":741,"x_min":20,"x_max":720,"o":"m 585 413 l 585 413 l 585 975 l 720 975 l 720 1 l 585 1 l 585 277 l 156 274 l 156 1 l 20 1 l 20 975 l 156 975 l 156 410 l 585 413 z "},"I":{"ha":176,"x_min":20,"x_max":156,"o":"m 20 1 l 20 1 l 20 975 l 156 975 l 156 1 l 20 1 z "},"J":{"ha":741,"x_min":20,"x_max":720,"o":"m 587 974 l 587 974 l 587 974 l 720 974 l 720 347 l 720 347 q 671 172 718 250 q 545 47 625 94 q 370 1 466 1 q 194 48 273 1 q 67 174 115 95 q 20 351 20 254 l 156 351 q 219 199 156 262 q 370 136 281 136 q 522 199 458 136 q 585 351 585 262 l 585 351 l 585 838 l 362 838 l 361 973 l 587 974 z "},"K":{"ha":590,"x_min":20,"x_max":570,"o":"m 570 975 l 570 975 q 503 745 570 847 q 327 591 436 644 q 503 439 436 541 q 570 213 570 338 l 570 213 l 570 1 l 434 1 l 434 216 l 434 216 q 352 411 430 333 q 156 494 273 490 l 156 1 l 20 1 l 20 976 l 156 976 l 156 689 q 297 729 234 690 q 397 831 359 767 q 434 975 434 896 l 570 975 z "},"L":{"ha":391,"x_min":20,"x_max":370,"o":"m 156 349 l 156 349 q 219 198 156 261 q 370 135 281 135 l 370 -1 q 195 47 274 -1 q 68 174 115 94 q 20 349 20 253 l 156 349 m 156 973 l 156 973 l 156 349 l 20 349 l 20 973 l 156 973 z "},"M":{"ha":1305,"x_min":20,"x_max":1284,"o":"m 935 972 l 935 972 q 1110 925 1031 972 q 1237 798 1190 878 q 1284 623 1284 719 l 1149 623 q 1086 774 1149 711 q 935 837 1023 837 q 787 778 848 837 q 720 631 726 719 q 720 623 720 627 l 720 623 l 585 623 l 585 623 q 585 631 585 627 q 517 778 578 719 q 370 837 456 837 q 219 774 282 837 q 156 623 156 711 l 20 623 q 68 798 20 719 q 195 925 115 878 q 370 972 274 972 q 530 934 457 972 q 652 829 604 895 q 774 934 701 895 q 935 972 848 972 m 585 -1 l 585 -1 l 585 623 l 720 623 l 720 -1 l 585 -1 m 20 -1 l 20 -1 l 20 623 l 156 623 l 156 -1 l 20 -1 m 1149 -1 l 1149 -1 l 1149 623 l 1284 623 l 1284 -1 l 1149 -1 z "},"N":{"ha":961,"x_min":20,"x_max":941,"o":"m 481 975 l 481 975 q 712 913 608 975 q 879 747 817 851 q 941 515 941 642 l 941 1 l 805 1 l 805 515 q 761 679 805 605 q 644 796 718 752 q 481 840 570 840 q 317 796 391 840 q 200 679 243 752 q 156 515 156 605 l 156 1 l 20 1 l 20 515 q 82 747 20 642 q 249 913 144 851 q 481 975 353 975 z "},"O":{"ha":1015,"x_min":20,"x_max":994,"o":"m 507 972 l 507 972 q 752 907 642 972 q 928 731 863 841 q 994 486 994 621 q 928 241 994 352 q 752 65 863 131 q 507 -1 642 -1 q 262 65 373 -1 q 86 241 152 131 q 20 486 20 352 q 86 731 20 621 q 262 907 152 841 q 507 972 373 972 m 507 135 l 507 135 q 684 182 604 135 q 811 310 764 230 q 859 486 859 389 q 811 663 859 583 q 684 790 764 743 q 507 837 604 837 q 331 790 410 837 q 203 663 251 743 q 156 486 156 583 q 203 310 156 389 q 331 182 251 230 q 507 135 410 135 z "},"P":{"ha":1018,"x_min":20,"x_max":998,"o":"m 512 141 l 512 141 q 689 189 609 141 q 817 317 770 237 q 865 494 865 397 q 817 672 865 591 q 689 800 770 752 q 512 848 609 848 q 334 800 414 848 q 207 672 254 752 q 159 494 159 591 q 207 317 159 397 q 334 189 254 237 q 512 141 414 141 m 511 974 l 511 974 q 756 907 647 972 q 931 732 866 842 q 998 487 996 622 q 931 239 997 350 q 755 63 866 129 q 509 -3 644 -3 q 314 37 405 -3 q 156 148 223 77 l 156 -393 l 156 -446 l 20 -446 l 20 -393 l 20 490 l 20 972 l 156 972 l 156 823 q 315 934 224 894 q 511 974 406 974 z "},"Q":{"ha":1023,"x_min":20,"x_max":1003,"o":"m 512 975 l 512 975 q 759 908 647 975 q 937 731 870 842 q 1003 484 1003 619 q 932 230 1003 344 q 745 52 862 115 l 833 -58 l 727 -143 l 611 3 q 512 -7 563 -7 q 265 59 376 -7 q 87 236 153 125 q 20 484 20 348 q 87 731 20 619 q 265 908 153 842 q 512 975 376 975 m 659 160 l 659 160 q 810 290 753 203 q 867 484 867 376 q 819 663 867 582 q 690 791 771 743 q 512 839 610 839 q 333 791 414 839 q 204 663 252 743 q 156 484 156 582 q 204 305 156 386 q 332 177 252 224 q 511 128 412 130 l 454 199 l 560 283 l 659 160 z "},"R":{"ha":756,"x_min":20,"x_max":736,"o":"m 378 976 l 378 976 q 558 927 477 976 q 688 798 640 879 q 736 618 736 717 q 696 455 736 530 q 590 330 657 380 q 437 265 523 280 q 490 81 490 182 l 490 81 l 490 -1 l 354 -1 l 354 81 l 354 81 q 297 227 352 168 q 156 294 241 286 l 156 -1 l 20 -1 l 20 643 l 22 643 q 78 811 29 736 q 205 931 127 886 q 378 976 284 976 m 378 396 l 378 396 q 535 461 470 396 q 600 618 600 526 q 535 775 600 710 q 378 840 470 840 q 222 775 287 840 q 157 618 157 710 q 222 461 157 526 q 378 396 287 396 z "},"S":{"ha":673,"x_min":20,"x_max":653,"o":"m 231 302 l 231 302 q 60 516 102 374 q 90 789 20 659 q 305 961 163 918 q 578 930 448 1000 l 513 811 q 342 831 431 855 q 209 724 254 804 q 190 554 165 643 q 296 420 216 466 l 231 302 m 612 462 l 612 462 q 585 189 653 319 q 449 48 534 98 q 268 -1 363 -1 q 98 42 182 -1 l 163 161 q 333 144 248 119 q 465 252 418 170 q 482 422 508 334 q 374 555 454 511 l 438 675 q 612 462 568 603 z "},"T":{"ha":880,"x_min":20,"x_max":860,"o":"m 510 975 l 510 975 l 510 972 l 860 972 l 860 837 l 510 837 l 510 -1 l 374 -1 l 374 837 l 20 837 l 20 972 l 374 972 l 374 975 l 510 975 z "},"U":{"ha":961,"x_min":20,"x_max":941,"o":"m 805 972 l 805 972 l 941 972 l 941 467 q 879 235 941 340 q 712 68 817 131 q 481 6 608 6 q 249 68 353 6 q 82 235 144 131 q 20 467 20 340 l 20 972 l 156 972 l 156 467 q 200 303 156 377 q 317 186 243 230 q 481 142 391 142 q 644 186 570 142 q 761 303 718 230 q 805 467 805 377 l 805 972 z "},"V":{"ha":897,"x_min":20,"x_max":877,"o":"m 877 979 l 877 979 l 543 3 l 355 3 l 20 979 l 164 979 l 449 147 l 734 979 l 877 979 z "},"W":{"ha":1234,"x_min":20,"x_max":1213,"o":"m 1070 975 l 1070 975 l 1213 975 l 879 -1 l 691 -1 l 617 216 l 543 -1 l 355 -1 l 20 975 l 164 975 l 449 143 l 545 425 l 357 975 l 500 975 l 617 634 l 734 975 l 877 975 l 688 425 l 785 143 l 1070 975 z "},"X":{"ha":789,"x_min":20,"x_max":769,"o":"m 769 979 l 769 979 l 474 486 l 765 0 l 606 0 l 395 353 l 183 0 l 25 0 l 316 486 l 20 979 l 178 979 l 395 617 l 611 979 l 769 979 z "},"Y":{"ha":741,"x_min":20,"x_max":720,"o":"m 370 280 l 370 280 q 546 328 467 280 q 673 454 625 375 q 720 630 720 534 l 585 630 q 522 479 585 542 q 370 416 458 416 q 219 479 281 416 q 156 630 156 542 l 20 630 q 67 454 20 534 q 194 328 115 375 q 370 280 273 280 m 720 627 l 720 627 l 720 974 l 585 974 l 585 627 l 720 627 m 156 627 l 156 627 l 156 974 l 20 974 l 20 627 l 156 627 m 435 1 l 435 1 l 435 347 l 300 347 l 300 1 l 435 1 z "},"Z":{"ha":836,"x_min":20,"x_max":816,"o":"m 815 4 l 815 4 l 815 140 l 217 140 l 816 863 l 815 973 l 73 973 l 73 838 l 619 838 l 20 115 l 22 4 l 815 4 z "},"[":{"ha":363,"x_min":20,"x_max":342,"o":"m 342 1009 l 342 1009 l 156 1009 l 156 -19 l 342 -19 l 342 -155 l 156 -155 l 156 -157 l 20 -157 l 20 -155 l 20 -155 l 20 -19 l 20 -19 l 20 1009 l 20 1009 l 20 1145 l 342 1145 l 342 1009 z "},"\\":{"ha":41,"x_min":0,"x_max":0,"o":""},"]":{"ha":363,"x_min":20,"x_max":342,"o":"m 342 1009 l 342 1009 l 342 1009 l 342 -19 l 342 -19 l 342 -155 l 342 -155 l 342 -157 l 207 -157 l 207 -155 l 20 -155 l 20 -19 l 207 -19 l 207 1009 l 20 1009 l 20 1145 l 342 1145 l 342 1009 z "},"^":{"ha":620,"x_min":20,"x_max":600,"o":"m 90 665 l 90 665 l 20 761 l 317 1167 l 600 779 l 530 683 l 317 975 l 90 665 z "},"_":{"ha":762,"x_min":20,"x_max":741,"o":"m 20 5 l 20 5 l 741 5 l 741 -131 l 20 -131 l 20 5 z "},"`":{"ha":41,"x_min":0,"x_max":0,"o":""},"a":{"ha":741,"x_min":20,"x_max":720,"o":"m 370 701 l 370 701 q 545 654 466 701 q 671 529 625 607 q 720 353 718 450 l 720 353 l 720 -1 l 585 -1 l 585 74 q 485 20 540 39 q 370 1 431 1 q 194 48 274 1 q 67 174 115 95 q 20 351 20 254 q 67 526 20 447 q 194 653 115 606 q 370 701 274 701 m 370 136 l 370 136 q 522 199 459 136 q 585 351 585 262 q 522 502 585 439 q 370 565 459 565 q 219 502 281 565 q 156 351 156 439 q 219 199 156 262 q 370 136 281 136 z "},"b":{"ha":741,"x_min":20,"x_max":720,"o":"m 370 701 l 370 701 q 547 653 467 701 q 673 527 626 606 q 720 351 720 447 q 673 175 720 254 q 547 48 626 95 q 370 1 467 1 q 195 47 275 1 q 69 173 116 94 q 20 348 22 251 l 20 348 l 20 975 l 156 975 l 156 627 q 255 681 201 662 q 370 701 310 701 m 370 136 l 370 136 q 522 199 459 136 q 585 351 585 262 q 522 502 585 439 q 370 565 459 565 q 219 502 282 565 q 156 351 156 439 q 219 199 156 262 q 370 136 282 136 z "},"c":{"ha":551,"x_min":20,"x_max":530,"o":"m 199 270 l 199 270 q 315 154 236 187 q 479 154 394 121 l 530 28 q 397 2 464 2 q 206 59 294 2 q 73 218 117 117 q 74 486 20 353 q 263 675 131 618 q 382 701 326 700 q 476 692 437 701 q 526 677 514 683 l 476 551 q 450 559 473 553 q 391 565 427 565 q 315 550 355 566 q 199 434 234 515 q 199 270 166 352 z "},"d":{"ha":741,"x_min":20,"x_max":720,"o":"m 585 627 l 585 627 l 585 975 l 720 975 l 720 348 l 720 348 q 671 173 718 251 q 546 47 625 94 q 370 1 467 1 q 194 48 274 1 q 67 175 115 95 q 20 351 20 254 q 67 527 20 447 q 194 653 115 606 q 370 701 274 701 q 485 681 431 701 q 585 627 540 662 m 370 136 l 370 136 q 522 199 459 136 q 585 351 585 262 q 522 502 585 439 q 370 565 459 565 q 219 502 281 565 q 156 351 156 439 q 219 199 156 262 q 370 136 281 136 z "},"e":{"ha":741,"x_min":20,"x_max":720,"o":"m 370 701 l 370 701 q 546 653 467 701 q 672 528 626 606 q 720 351 719 449 l 720 351 l 720 286 l 709 286 l 709 286 l 365 286 l 365 421 l 573 421 q 495 525 550 485 q 370 565 441 565 q 219 502 282 565 q 156 351 156 439 q 189 241 156 289 q 271 165 222 193 q 372 136 320 138 l 369 1 q 133 98 237 5 q 20 351 20 206 q 68 527 20 447 q 195 653 115 606 q 370 701 274 701 z "},"f":{"ha":392,"x_min":20,"x_max":372,"o":"m 370 701 l 370 701 q 371 701 371 701 q 372 701 372 701 l 372 565 q 371 565 372 565 q 370 565 371 565 q 219 502 282 565 q 156 351 156 439 l 156 351 l 156 136 l 288 137 l 290 1 l 156 0 l 156 -273 l 20 -273 l 20 353 l 20 353 q 69 529 22 450 q 195 654 116 607 q 370 701 275 701 z "},"g":{"ha":741,"x_min":20,"x_max":720,"o":"m 720 353 l 720 353 l 720 -1 l 718 -1 l 718 -85 l 718 -85 q 661 -265 713 -186 q 522 -387 608 -345 l 522 -222 q 583 -73 583 -159 l 583 72 q 370 0 490 0 q 194 47 274 0 q 67 174 115 95 q 20 350 20 254 q 67 526 20 446 q 194 653 115 606 q 370 700 274 700 q 583 628 490 700 l 583 697 l 718 697 l 718 387 q 720 353 720 370 l 720 353 m 370 136 l 370 136 q 511 188 452 136 q 583 321 570 241 l 583 378 q 511 512 570 459 q 370 564 452 564 q 219 502 281 564 q 156 350 156 439 q 219 198 156 261 q 370 136 281 136 z "},"h":{"ha":738,"x_min":20,"x_max":720,"o":"m 370 697 l 370 697 q 547 650 467 697 q 673 523 626 602 q 720 347 720 444 l 720 1 l 585 1 l 585 347 q 522 498 585 435 q 370 562 459 562 q 219 498 282 562 q 156 347 156 435 l 156 1 l 20 1 l 20 347 q 20 350 20 349 q 20 351 20 351 l 20 975 l 156 975 l 156 623 q 255 678 201 659 q 370 697 310 697 z "},"i":{"ha":176,"x_min":20,"x_max":156,"o":"m 20 -1 l 20 -1 l 20 697 l 156 697 l 156 -1 l 20 -1 m 20 843 l 20 843 l 20 972 l 156 972 l 156 843 l 20 843 z "},"j":{"ha":214,"x_min":-3,"x_max":193,"o":"m 58 972 l 58 972 l 193 972 l 193 844 l 58 844 l 58 972 m 58 -92 l 58 -92 l 58 699 l 193 699 l 193 -104 l 193 -104 q 136 -284 189 -205 q -3 -406 83 -363 l -3 -241 q 58 -92 58 -178 z "},"k":{"ha":523,"x_min":20,"x_max":503,"o":"m 503 697 l 503 697 q 453 516 503 597 q 322 387 404 434 q 453 261 404 342 q 503 81 502 181 l 503 81 l 503 -1 l 367 -1 l 367 81 q 306 231 367 169 q 156 296 245 292 l 156 -1 l 20 -1 l 20 975 l 156 975 l 156 479 q 306 545 245 483 q 367 697 367 608 l 503 697 z "},"l":{"ha":391,"x_min":20,"x_max":370,"o":"m 156 351 l 156 351 q 219 199 156 262 q 370 136 281 136 l 370 1 q 194 48 273 1 q 67 175 115 95 q 20 351 20 254 l 156 351 m 156 975 l 156 975 l 156 351 l 20 351 l 20 975 l 156 975 z "},"m":{"ha":1304,"x_min":20,"x_max":1284,"o":"m 934 697 l 934 697 q 1110 650 1030 697 q 1237 523 1190 602 q 1284 347 1284 444 l 1284 1 l 1148 1 l 1148 347 q 1085 498 1148 435 q 934 562 1023 562 q 787 503 848 562 q 720 357 726 444 q 720 347 720 352 l 720 347 l 720 1 l 584 1 l 584 347 q 584 357 584 352 q 517 503 578 444 q 370 562 456 562 q 219 498 281 562 q 156 347 156 435 l 156 1 l 20 1 l 20 347 q 67 523 20 444 q 194 650 115 602 q 370 697 273 697 q 530 659 457 697 q 652 554 604 620 q 774 659 701 620 q 934 697 847 697 z "},"n":{"ha":741,"x_min":20,"x_max":720,"o":"m 370 697 l 370 697 q 547 650 467 697 q 673 523 626 602 q 720 347 720 444 l 720 1 l 585 1 l 585 347 q 522 498 585 435 q 370 562 459 562 q 219 498 282 562 q 156 347 156 435 l 156 1 l 20 1 l 20 347 q 68 523 20 444 q 195 650 115 602 q 370 697 274 697 z "},"o":{"ha":741,"x_min":20,"x_max":720,"o":"m 370 701 l 370 701 q 547 653 467 701 q 673 527 626 606 q 720 351 720 447 q 673 175 720 254 q 547 48 626 95 q 370 1 467 1 q 195 48 274 1 q 68 175 115 95 q 20 351 20 254 q 68 527 20 447 q 195 653 115 606 q 370 701 274 701 m 370 136 l 370 136 q 522 199 459 136 q 585 351 585 262 q 522 502 585 439 q 370 565 459 565 q 219 502 282 565 q 156 351 156 439 q 219 199 156 262 q 370 136 282 136 z "},"p":{"ha":741,"x_min":20,"x_max":720,"o":"m 370 701 l 370 701 q 547 653 467 701 q 673 526 626 606 q 720 351 720 447 q 673 174 720 254 q 547 48 626 95 q 370 1 467 1 q 255 20 310 1 q 156 74 201 39 l 156 -273 l 20 -273 l 20 353 l 20 353 q 69 529 22 450 q 195 654 116 607 q 370 701 275 701 m 370 136 l 370 136 q 522 199 459 136 q 585 351 585 262 q 522 502 585 439 q 370 565 459 565 q 219 502 282 565 q 156 351 156 439 q 219 199 156 262 q 370 136 282 136 z "},"q":{"ha":741,"x_min":20,"x_max":720,"o":"m 720 351 l 720 351 q 674 176 720 255 q 551 50 628 98 l 618 -35 l 513 -119 l 415 3 q 370 1 393 1 q 195 48 274 1 q 68 174 115 95 q 20 351 20 254 q 68 526 20 447 q 195 653 115 606 q 370 701 274 701 q 546 653 467 701 q 673 526 626 606 q 720 351 720 447 m 465 158 l 465 158 q 552 236 519 185 q 585 351 585 287 q 522 502 585 439 q 370 565 459 565 q 219 502 282 565 q 156 351 156 439 q 216 202 156 263 q 366 136 276 140 l 437 193 l 465 158 z "},"r":{"ha":391,"x_min":20,"x_max":370,"o":"m 20 347 l 20 347 q 68 523 20 444 q 195 650 115 602 q 370 697 274 697 l 370 562 q 219 498 282 562 q 156 347 156 435 l 156 1 l 20 1 l 20 347 z "},"s":{"ha":570,"x_min":20,"x_max":550,"o":"m 461 401 l 461 401 q 550 232 550 329 q 514 116 550 168 q 418 33 479 64 q 285 1 358 1 q 152 33 212 1 q 56 116 92 64 q 20 232 20 168 l 153 232 q 192 158 153 189 q 285 127 231 127 q 378 158 340 127 q 417 232 417 189 q 397 285 417 262 q 346 322 376 309 q 283 336 316 336 l 283 336 q 157 383 213 342 q 88 517 88 439 q 149 645 88 591 q 294 698 209 698 q 439 645 379 698 q 500 517 500 591 l 366 517 q 345 555 366 539 q 294 572 323 572 q 243 555 264 572 q 221 517 221 539 q 233 488 221 500 q 262 469 245 476 q 295 462 279 463 l 295 462 q 461 401 388 456 z "},"t":{"ha":391,"x_min":20,"x_max":370,"o":"m 156 351 l 156 351 q 219 199 156 262 q 370 136 281 136 l 370 1 q 194 48 273 1 q 67 175 115 95 q 20 351 20 254 l 156 351 m 156 561 l 156 561 l 156 351 l 20 351 l 20 975 l 156 975 l 156 696 l 287 696 l 287 561 l 156 561 z "},"u":{"ha":741,"x_min":20,"x_max":720,"o":"m 585 351 l 585 351 l 585 697 l 720 697 l 720 351 q 673 175 720 254 q 546 48 625 95 q 370 1 467 1 q 194 48 273 1 q 67 175 115 95 q 20 351 20 254 l 20 697 l 156 697 l 156 351 q 219 199 156 262 q 370 136 281 136 q 522 199 458 136 q 585 351 585 262 z "},"v":{"ha":707,"x_min":20,"x_max":686,"o":"m 353 140 l 353 140 l 543 693 l 686 693 l 447 -5 l 259 -5 l 20 693 l 163 693 l 353 140 z "},"w":{"ha":1305,"x_min":20,"x_max":1284,"o":"m 1149 351 l 1149 351 l 1149 697 l 1284 697 l 1284 351 q 1237 175 1284 254 q 1110 48 1190 95 q 935 1 1031 1 q 774 39 848 1 q 652 144 701 78 q 530 39 604 78 q 370 1 457 1 q 195 48 274 1 q 68 175 115 95 q 20 351 20 254 l 20 697 l 156 697 l 156 351 q 219 199 156 262 q 370 136 282 136 q 518 195 457 136 q 585 341 578 254 q 585 351 585 346 l 585 351 l 585 697 l 720 697 l 720 351 q 720 341 720 346 q 787 195 726 254 q 935 136 848 136 q 1086 199 1023 136 q 1149 351 1149 262 z "},"x":{"ha":561,"x_min":20,"x_max":541,"o":"m 405 503 l 405 503 l 405 694 l 541 694 l 541 503 q 467 347 541 416 q 541 191 541 278 l 541 -1 l 405 -1 l 405 191 q 368 253 405 227 q 280 279 331 279 q 193 253 230 279 q 156 191 156 227 l 156 -1 l 20 -1 l 20 191 q 94 347 20 278 q 20 503 20 416 l 20 694 l 156 694 l 156 503 q 193 441 156 467 q 280 415 230 415 q 368 441 331 415 q 405 503 405 467 z "},"y":{"ha":741,"x_min":20,"x_max":720,"o":"m 720 697 l 720 697 l 720 696 l 720 696 l 720 350 l 720 350 l 720 74 l 720 74 q 672 -103 718 -24 q 546 -229 625 -182 q 370 -276 466 -276 l 370 -140 q 521 -78 458 -140 q 584 74 584 -15 l 585 74 l 585 74 q 485 20 540 39 q 370 1 431 1 q 194 48 273 1 q 67 175 115 95 q 20 351 20 254 l 20 697 l 156 697 l 156 351 q 219 199 156 262 q 370 136 281 136 q 522 199 458 136 q 585 351 585 262 l 585 351 l 585 697 l 720 697 z "},"z":{"ha":616,"x_min":20,"x_max":596,"o":"m 596 559 l 596 559 l 218 144 l 596 144 l 596 0 l 21 0 l 20 138 l 399 568 l 75 568 l 75 699 l 595 699 l 596 559 z "},"{":{"ha":688,"x_min":0,"x_max":0,"o":""},"|":{"ha":688,"x_min":0,"x_max":0,"o":""},"}":{"ha":688,"x_min":0,"x_max":0,"o":""},"~":{"ha":688,"x_min":0,"x_max":0,"o":""},"¡":{"ha":456,"x_min":0,"x_max":0,"o":""},"¢":{"ha":772,"x_min":0,"x_max":0,"o":""},"£":{"ha":688,"x_min":0,"x_max":0,"o":""},"¤":{"ha":688,"x_min":0,"x_max":0,"o":""},"¥":{"ha":856,"x_min":0,"x_max":0,"o":""},"¦":{"ha":688,"x_min":0,"x_max":0,"o":""},"§":{"ha":688,"x_min":0,"x_max":0,"o":""},"¨":{"ha":694,"x_min":0,"x_max":0,"o":""},"©":{"ha":1135,"x_min":0,"x_max":0,"o":""},"ª":{"ha":439,"x_min":0,"x_max":0,"o":""},"«":{"ha":640,"x_min":0,"x_max":0,"o":""},"¬":{"ha":688,"x_min":0,"x_max":0,"o":""},"®":{"ha":1135,"x_min":0,"x_max":0,"o":""},"¯":{"ha":454,"x_min":0,"x_max":0,"o":""},"°":{"ha":457,"x_min":0,"x_max":0,"o":""},"±":{"ha":688,"x_min":0,"x_max":0,"o":""},"²":{"ha":688,"x_min":0,"x_max":0,"o":""},"³":{"ha":688,"x_min":0,"x_max":0,"o":""},"´":{"ha":694,"x_min":0,"x_max":0,"o":""},"µ":{"ha":800,"x_min":0,"x_max":0,"o":""},"¶":{"ha":694,"x_min":0,"x_max":0,"o":""},"·":{"ha":345,"x_min":0,"x_max":0,"o":""},"∙":{"ha":345,"x_min":0,"x_max":0,"o":""},"¸":{"ha":694,"x_min":0,"x_max":0,"o":""},"¹":{"ha":688,"x_min":0,"x_max":0,"o":""},"º":{"ha":487,"x_min":0,"x_max":0,"o":""},"»":{"ha":640,"x_min":0,"x_max":0,"o":""},"¼":{"ha":1158,"x_min":0,"x_max":0,"o":""},"½":{"ha":1332,"x_min":0,"x_max":0,"o":""},"¾":{"ha":1158,"x_min":0,"x_max":0,"o":""},"¿":{"ha":507,"x_min":0,"x_max":0,"o":""},"À":{"ha":1044,"x_min":0,"x_max":0,"o":""},"Á":{"ha":1044,"x_min":0,"x_max":0,"o":""},"Â":{"ha":1044,"x_min":0,"x_max":0,"o":""},"Ã":{"ha":1044,"x_min":0,"x_max":0,"o":""},"Ä":{"ha":1044,"x_min":0,"x_max":0,"o":""},"Å":{"ha":1044,"x_min":0,"x_max":0,"o":""},"Æ":{"ha":1436,"x_min":0,"x_max":0,"o":""},"Ç":{"ha":949,"x_min":0,"x_max":0,"o":""},"È":{"ha":781,"x_min":0,"x_max":0,"o":""},"É":{"ha":781,"x_min":0,"x_max":0,"o":""},"Ê":{"ha":781,"x_min":0,"x_max":0,"o":""},"Ë":{"ha":781,"x_min":0,"x_max":0,"o":""},"Ì":{"ha":446,"x_min":0,"x_max":0,"o":""},"Í":{"ha":446,"x_min":0,"x_max":0,"o":""},"Î":{"ha":446,"x_min":0,"x_max":0,"o":""},"Ï":{"ha":446,"x_min":0,"x_max":0,"o":""},"Ð":{"ha":1029,"x_min":0,"x_max":0,"o":""},"Ñ":{"ha":1054,"x_min":0,"x_max":0,"o":""},"Ò":{"ha":1095,"x_min":0,"x_max":0,"o":""},"Ó":{"ha":1095,"x_min":0,"x_max":0,"o":""},"Ô":{"ha":1095,"x_min":0,"x_max":0,"o":""},"Õ":{"ha":1095,"x_min":0,"x_max":0,"o":""},"Ö":{"ha":1095,"x_min":0,"x_max":0,"o":""},"×":{"ha":688,"x_min":0,"x_max":0,"o":""},"Ø":{"ha":1095,"x_min":0,"x_max":0,"o":""},"Ù":{"ha":1018,"x_min":0,"x_max":0,"o":""},"Ú":{"ha":1018,"x_min":0,"x_max":0,"o":""},"Û":{"ha":1018,"x_min":0,"x_max":0,"o":""},"Ü":{"ha":1018,"x_min":0,"x_max":0,"o":""},"Ý":{"ha":836,"x_min":0,"x_max":0,"o":""},"Þ":{"ha":760,"x_min":0,"x_max":0,"o":""},"ß":{"ha":848,"x_min":0,"x_max":0,"o":""},"à":{"ha":625,"x_min":0,"x_max":0,"o":""},"á":{"ha":625,"x_min":0,"x_max":0,"o":""},"â":{"ha":625,"x_min":0,"x_max":0,"o":""},"ã":{"ha":625,"x_min":0,"x_max":0,"o":""},"ä":{"ha":625,"x_min":0,"x_max":0,"o":""},"å":{"ha":625,"x_min":0,"x_max":0,"o":""},"æ":{"ha":986,"x_min":0,"x_max":0,"o":""},"ç":{"ha":614,"x_min":0,"x_max":0,"o":""},"è":{"ha":616,"x_min":0,"x_max":0,"o":""},"é":{"ha":616,"x_min":0,"x_max":0,"o":""},"ê":{"ha":616,"x_min":0,"x_max":0,"o":""},"ë":{"ha":616,"x_min":0,"x_max":0,"o":""},"ì":{"ha":349,"x_min":0,"x_max":0,"o":""},"í":{"ha":349,"x_min":0,"x_max":0,"o":""},"î":{"ha":349,"x_min":0,"x_max":0,"o":""},"ï":{"ha":349,"x_min":0,"x_max":0,"o":""},"ð":{"ha":772,"x_min":0,"x_max":0,"o":""},"ñ":{"ha":751,"x_min":0,"x_max":0,"o":""},"ò":{"ha":685,"x_min":0,"x_max":0,"o":""},"ó":{"ha":685,"x_min":0,"x_max":0,"o":""},"ô":{"ha":685,"x_min":0,"x_max":0,"o":""},"õ":{"ha":685,"x_min":0,"x_max":0,"o":""},"ö":{"ha":685,"x_min":0,"x_max":0,"o":""},"÷":{"ha":688,"x_min":0,"x_max":0,"o":""},"ø":{"ha":685,"x_min":0,"x_max":0,"o":""},"ù":{"ha":718,"x_min":0,"x_max":0,"o":""},"ú":{"ha":718,"x_min":0,"x_max":0,"o":""},"û":{"ha":718,"x_min":0,"x_max":0,"o":""},"ü":{"ha":718,"x_min":0,"x_max":0,"o":""},"ý":{"ha":589,"x_min":0,"x_max":0,"o":""},"þ":{"ha":685,"x_min":0,"x_max":0,"o":""},"ÿ":{"ha":589,"x_min":0,"x_max":0,"o":""},"ı":{"ha":349,"x_min":0,"x_max":0,"o":""},"ˆ":{"ha":694,"x_min":0,"x_max":0,"o":""},"ˇ":{"ha":694,"x_min":0,"x_max":0,"o":""},"ˉ":{"ha":694,"x_min":0,"x_max":0,"o":""},"˘":{"ha":694,"x_min":0,"x_max":0,"o":""},"˙":{"ha":694,"x_min":0,"x_max":0,"o":""},"˚":{"ha":694,"x_min":0,"x_max":0,"o":""},"˛":{"ha":694,"x_min":0,"x_max":0,"o":""},"˜":{"ha":694,"x_min":0,"x_max":0,"o":""},"˝":{"ha":694,"x_min":0,"x_max":0,"o":""},"–":{"ha":751,"x_min":0,"x_max":0,"o":""},"—":{"ha":1389,"x_min":0,"x_max":0,"o":""},"‘":{"ha":378,"x_min":0,"x_max":0,"o":""},"’":{"ha":378,"x_min":0,"x_max":0,"o":""},"‚":{"ha":378,"x_min":0,"x_max":0,"o":""},"“":{"ha":617,"x_min":0,"x_max":0,"o":""},"”":{"ha":617,"x_min":0,"x_max":0,"o":""},"„":{"ha":617,"x_min":0,"x_max":0,"o":""},"†":{"ha":688,"x_min":0,"x_max":0,"o":""},"‡":{"ha":688,"x_min":0,"x_max":0,"o":""},"•":{"ha":694,"x_min":0,"x_max":0,"o":""},"…":{"ha":1389,"x_min":0,"x_max":0,"o":""},"‹":{"ha":428,"x_min":0,"x_max":0,"o":""},"›":{"ha":428,"x_min":0,"x_max":0,"o":""},"⁄":{"ha":232,"x_min":0,"x_max":0,"o":""},"∕":{"ha":232,"x_min":0,"x_max":0,"o":""},"₣":{"ha":688,"x_min":0,"x_max":0,"o":""},"₤":{"ha":688,"x_min":0,"x_max":0,"o":""},"₧":{"ha":1375,"x_min":0,"x_max":0,"o":""},"€":{"ha":688,"x_min":0,"x_max":0,"o":""},"№":{"ha":1540,"x_min":0,"x_max":0,"o":""},"™":{"ha":1015,"x_min":0,"x_max":0,"o":""},"∂":{"ha":688,"x_min":0,"x_max":0,"o":""},"∆":{"ha":733,"x_min":0,"x_max":0,"o":""},"∏":{"ha":1027,"x_min":0,"x_max":0,"o":""},"∑":{"ha":818,"x_min":0,"x_max":0,"o":""},"−":{"ha":688,"x_min":0,"x_max":0,"o":""},"√":{"ha":688,"x_min":0,"x_max":0,"o":""},"∞":{"ha":688,"x_min":0,"x_max":0,"o":""},"∫":{"ha":451,"x_min":0,"x_max":0,"o":""},"≈":{"ha":688,"x_min":0,"x_max":0,"o":""},"≤":{"ha":688,"x_min":0,"x_max":0,"o":""},"≥":{"ha":688,"x_min":0,"x_max":0,"o":""},"":{"ha":728,"x_min":0,"x_max":0,"o":""},"ﬁ":{"ha":728,"x_min":0,"x_max":0,"o":""},"":{"ha":733,"x_min":0,"x_max":0,"o":""},"ﬂ":{"ha":733,"x_min":0,"x_max":0,"o":""}}}
